<?xml version="1.0" encoding="UTF-8"?>
<svg id="Camada_2" data-name="Camada 2" xmlns="http://www.w3.org/2000/svg" viewBox="0 0 991.16 109.82">
  <g id="Camada_1-2" data-name="Camada 1">
    <g>
      <path d="M216.73,48.83c-2.12,36.81-29.49,61.99-65.56,60.95-26.77-.77-44.29-19.85-43.96-46.33C107.68,25.5,136.42-2.14,174.51.13c26.72,1.59,43.81,21.1,42.22,48.7ZM161.13,78.28c14.32-1.81,21.6-14.18,22.52-27.28.41-5.83-1.15-12.16-4.99-15.83-3.36-3.21-9.77-4.6-14.96-4.02-14.32,1.62-22.35,13.73-23.21,27.79-.34,5.56,1.33,12.01,5.11,15.5,3.28,3.03,9.72,4.56,15.53,3.82Z"/>
      <path d="M415.19,92.59l-35.64-.15-8.65,16.31-34.73-.48L394.07,2.14l38.87-.29,20.18,106.55-35.12.29-2.81-16.1ZM411.69,67.06l-4.66-28.92-14.39,28.71,19.05.21Z"/>
      <polygon points="288.57 108.29 254.93 108.61 268.97 28.71 241.06 28.37 245.61 1.88 335.75 1.88 331.37 28.37 302.75 28.59 288.57 108.29"/>
      <polygon points="47.51 108.68 14 108.51 28.01 28.61 0 28.3 4.73 1.83 94.85 1.99 90.39 28.37 61.82 28.54 47.51 108.68"/>
      <polygon points="546.45 83.45 541.99 108.56 475.98 108.61 494.82 2.02 528.48 1.98 514.24 82.9 546.45 83.45"/>
      <path d="M750.24,87.31h-43.84s-11.13,20.31-11.13,20.31c-4.65,1.41-11.65,1.29-18.04.27l55.73-103.73,20.25-.29,19.03,104.46-18.11.24-3.89-21.25ZM748.07,73.38l-8.81-47.9-25.6,48.17,34.41-.27Z"/>
      <path d="M868.61,102.18c-13.89,9.24-32.52,9.93-46.97,2.9-9.83-4.78-14.93-13.69-13.55-24.99l16.57-.12c1.12,8.08,4.23,13.22,11.71,15.02,10.23,2.46,25.37-.33,26.43-12.57.39-4.51-2.59-10.94-7.29-13.09l-24.2-11.06c-9.91-4.53-16.91-12.23-17.54-22.05-.71-10.98,3.52-21.31,13.5-27.29,12.54-7.51,28.93-8.44,42.43-2.79,10.29,4.31,16.54,13.7,15.32,24.83l-17.43.03c-.83-8.27-5.55-13.55-13.8-14.23-5.13-.42-11.39.28-15.88,2.89-4.2,2.44-6.83,7.73-6.71,12.2.1,3.59,3.79,9.12,7.61,11l26.86,13.17c8.49,4.16,14.3,12.66,14.89,20.5.76,10.03-2.64,19.44-11.96,25.64Z"/>
      <path d="M974.04,102.54c-13.88,8.71-31.66,9.51-45.86,2.79-9.99-4.73-15.54-13.57-14.11-25.29l16.79-.09c.85,7.74,3.75,12.75,10.58,14.74,10.19,2.97,26.28.4,27.35-12.07.44-5.14-2.74-11.33-7.88-13.65l-23.06-10.43c-9.62-4.35-16.84-11.67-17.87-20.83-1.24-11.04,2.42-21.37,11.89-27.78,12.98-8.78,30.57-9.59,44.97-3.23,9.97,4.4,15.55,14.66,14.09,24.42l-17.61-.26c-.54-7.43-4.18-12.52-11.47-13.7-11.18-1.8-23.79,1.74-24.61,13.16-.33,4.66,3.22,10.54,7.98,12.83l24.99,12c9.21,4.42,15.72,12.7,16.39,21.54.78,10.2-3,19.86-12.56,25.85Z"/>
      <path d="M633.91,64.85c-10.65,1.94-19.71,1.21-31.21,1.16l-7.9,42.41-17.1-.31,18.58-104.13,43.28.43c11.13.11,22.34,7.57,24.53,18.51,3.97,19.73-9.8,38.22-30.18,41.93ZM647,31.78c.81-19.39-24.77-13.97-35.98-14.09l-6.06,35.05,21.91-.2c11.47-.1,19.63-8.69,20.13-20.77Z"/>
    </g>
  </g>
</svg>