<?xml version="1.0" encoding="UTF-8"?>
<svg id="Camada_2" data-name="Camada 2" xmlns="http://www.w3.org/2000/svg" viewBox="0 0 991.16 188.32">
  <defs>
    <style>
      .cls-1, .cls-2 {
        fill: #f46152;
      }

      .cls-2 {
        fill-rule: evenodd;
      }
    </style>
  </defs>
  <g id="Camada_1-2" data-name="Camada 1">
    <g id="g24">
      <g id="g22">
        <path id="path4" class="cls-2" d="M120.91,94.2c-.62-.35-1.38-.17-2.1-.17-14.56-.01-29.12,0-43.69,0-2.68,0-2.45.14-2.45-2.38,0-6.84,0-13.68,0-20.52,0-2.11-.18-2.04,1.93-2.04,24.59,0,49.17,0,73.76,0,.2,0,.41.02.61,0,.92-.1,1.44.19,1.32,1.22-.04.33,0,.68,0,1.02,0,16.53-.01,33.05.02,49.58,0,1.3-.36,2.29-1.15,3.31-5.9,7.52-13.24,13.29-21.54,17.9-10.78,5.98-22.37,9.41-34.6,10.76-4.57.5-9.15.84-13.75.73-11.61-.26-22.77-2.6-33.44-7.25-8.06-3.51-15.43-8.13-21.92-14.06-8.36-7.64-14.75-16.7-18.81-27.31-2.89-7.55-4.43-15.38-4.92-23.47-.66-11.13.65-21.96,4.18-32.5,3.72-11.12,9.86-20.74,18.5-28.68C31.68,12.23,42.05,6.87,53.57,3.67c7.25-2.02,14.65-3.14,22.18-3.46,2.16-.09,4.32-.24,6.48-.21,9.31.14,18.46,1.33,27.28,4.46,7.73,2.74,14.75,6.65,20.85,12.22,5.84,5.34,10.2,11.66,13.31,18.9.34.78.26,1.13-.53,1.56-4.64,2.5-9.24,5.07-13.86,7.61-3.55,1.95-7.09,3.93-10.67,5.84-1.4.75-1.24.94-2.16-.55-2.63-4.28-5.59-8.3-9.22-11.79-6.12-5.88-13.24-9.96-21.75-10.8-11.84-1.16-22.93,1.04-32.37,8.86-5.55,4.6-9.36,10.44-11.8,17.19-1.87,5.17-2.92,10.5-3.36,15.99-.77,9.75-.02,19.29,3.39,28.51,3.41,9.22,9.2,16.47,17.93,21.21,5,2.72,10.39,4.18,16.02,4.74,7.96.8,15.79.05,23.5-2.03,7.58-2.05,14.57-5.34,20.84-10.12.88-.67,1.33-1.37,1.31-2.53-.06-5-.03-10-.03-15.06Z"/>
        <path id="path6" class="cls-2" d="M325.31,67.02c.95-1.63,1.84-3.3,2.87-4.87,5.89-9.01,14.2-14.26,24.82-15.87,7.44-1.13,14.81-.97,22.07,1.15,8.72,2.55,15,8.08,19.28,15.99.8,1.48,1.49,3.03,2.28,4.66,1.31-1.97,2.47-3.92,3.82-5.73,7.95-10.68,18.69-15.96,31.91-16.63,5.18-.26,10.25.09,15.26,1.35,10.7,2.69,18.16,9.19,22.5,19.31,2.06,4.82,3.14,9.87,3.68,15.07.35,3.37.37,6.74.37,10.12,0,17.88,0,35.76,0,53.64,0,2.65.27,2.44-2.36,2.44-9.82,0-19.64,0-29.46,0-.41,0-.81-.02-1.22,0-.77.02-1.12-.33-1.08-1.1.02-.54,0-1.08,0-1.62,0-17.07.01-34.14,0-51.2,0-4.36-.66-8.6-2.38-12.66-2.17-5.12-5.98-8.29-11.39-9.4-6.51-1.33-12.68-.52-18.1,3.63-3.94,3.02-5.98,7.25-7.14,11.95-.7,2.83-.95,5.72-.95,8.64.01,16.25,0,32.51,0,48.77,0,.41,0,.81,0,1.22-.03,1.76-.03,1.78-1.82,1.78-10.02,0-20.05,0-30.07,0-2.1,0-2.11-.01-2.11-2.11,0-16.32,0-32.65,0-48.97,0-4.26-.23-8.5-1.44-12.63-2.48-8.43-7.83-12.35-16.43-12.82-4.55-.25-8.86.73-12.75,3.26-3.62,2.36-5.89,5.72-7.39,9.66-1.31,3.44-1.94,7.01-1.94,10.71.02,16.73,0,33.46,0,50.19,0,.54-.03,1.08,0,1.63.04.79-.34,1.11-1.1,1.09-.41-.01-.81,0-1.22,0-9.82,0-19.64,0-29.46,0-.27,0-.54,0-.81,0q-1.48-.05-1.53-1.44c-.01-.34,0-.68,0-1.02,0-31.36,0-62.72,0-94.07,0-2.76-.28-2.51,2.49-2.52,9.35,0,18.69,0,28.04,0,.41,0,.82.03,1.22,0,.98-.09,1.3.35,1.29,1.3-.04,3.11-.01,6.23-.01,9.35v7.7c.09.02.19.04.28.06h0Z"/>
        <path id="path8" class="cls-1" d="M565.62,45.57c-3.76,0-7.54.38-11.27,1.15-11.28,2.33-20.77,7.5-27.56,17.07-.14.19-.27.49-.72.32v-1.97c0-4,.01-7.99,0-11.99,0-1.48-.04-1.48-1.45-1.54-.41-.02-.81,0-1.22,0h-23.77c-1.69,0-3.39-.02-5.08,0-1.63.02-1.63.04-1.66,1.74,0,.2,0,.41,0,.61v134.91c0,.47.02.95,0,1.42-.01.67.31,1,.97,1,.54,0,1.08,0,1.62,0,8.13,0,16.25,0,24.38,0,1.83,0,3.66.02,5.49,0,1.62-.02,1.62-.04,1.65-1.73,0-.47,0-.95,0-1.42v-50.35c2.14,1.78,3.93,3.69,5.96,5.37,8.59,7.13,18.69,10.05,29.62,10.57,4.88.23,9.72-.22,14.51-1.2,9.46-1.94,17.71-6.19,24.48-13.1,6.26-6.38,10.24-14.09,12.32-22.73,1.55-6.44,2.2-12.98,1.76-19.65-.37-5.57-1.18-11-2.91-16.3-3.27-10.04-9.1-18.19-17.87-24.15-8.83-5.99-18.8-8.06-29.26-8.05h0ZM553.98,68.62c4.56-.06,9.24.79,13.57,3.08,5.68,3,9.31,7.77,11.16,13.8,2.8,9.13,2.7,18.26-1.01,27.13-3.41,8.15-9.62,13.04-18.34,14.58-7.5,1.33-14.68.47-21.27-3.58-5.16-3.17-8.57-7.76-10.35-13.53-1.69-5.5-1.77-11.12-1.31-16.82.26-3.2.83-6.29,2.01-9.24,3.15-7.88,9.06-12.56,17.2-14.57,2.63-.65,5.32-.87,8.33-.86Z"/>
        <path id="path10" class="cls-1" d="M689.84,45.64c-1.13.01-2.27.04-3.4.08-4.87.17-9.7.57-14.5,1.38-7.66,1.29-14.98,3.57-21.68,7.56-9.86,5.86-16.37,14.16-18.22,25.73-.26,1.66-.28,1.69,1.45,1.69,10.5,0,20.99,0,31.48,0,1.64,0,1.67-.01,2.01-1.53,1.25-5.7,4.72-9.5,10.07-11.56,7.58-2.92,15.33-2.98,23.07-.74,3.61,1.04,6.58,3.14,8.52,6.46,1.88,3.22,2.13,6.78,2.07,10.39-.02.95-.67,1-1.39,1.06-3.3.26-6.59.53-9.88.83-8.13.75-16.26,1.52-24.38,2.28-5.99.56-11.95,1.32-17.82,2.6-5.83,1.27-11.51,2.98-16.62,6.19-4.66,2.93-8.09,6.91-10.05,12.1-1.7,4.49-2.24,9.1-1.68,13.9.83,7.06,3.84,12.86,9.27,17.44,5.27,4.44,11.47,6.8,18.13,8.06,6.2,1.18,12.45,1.44,18.76.99,7.14-.51,14.07-1.8,20.64-4.69,6.37-2.81,11.77-6.87,15.59-12.81.22-.35.21-.98.9-.88.15,2.31.33,4.59.45,6.88.14,2.49.47,4.96.82,7.43.11.81.41,1.25,1.27,1.2.4-.02.81,0,1.22,0,9.68,0,19.37,0,29.05,0,.67,0,1.35.12,2.29-.26-.81-3.32-1.23-6.66-1.57-10.01-.58-5.71-.76-11.45-.82-17.18-.11-11.31-.04-22.62-.03-33.92,0-5.46-.85-10.76-2.76-15.88-2.08-5.56-5.36-10.28-10.02-14.01-5.5-4.4-11.86-6.94-18.66-8.45-7.77-1.74-15.63-2.38-23.56-2.3h0ZM710.29,102.39c1.02-.03,1.08.19,1.1,1.54.02,1.02,0,2.03,0,3.55.25,2.8-.26,5.97-1.67,8.96-2.2,4.67-5.88,7.85-10.47,10.04-4.38,2.09-9.04,3.02-13.88,3.36-4.16.3-8.22-.01-12.24-1.02-1.64-.41-3.16-1.14-4.64-1.99-6.58-3.8-6.62-13.15-.33-17.23,2.95-1.91,6.25-2.84,9.64-3.54,5.44-1.12,10.97-1.43,16.47-2.02,4.9-.52,9.8-1.01,14.7-1.51.27-.03.53-.09.8-.11.19-.01.35-.02.5-.02h0Z"/>
        <path id="path12" class="cls-2" d="M155.65,48.84c.75-.33,1.3-.23,1.83-.23,11.24,0,22.48-.01,33.72,0,2,0,1.82-.28,2.6,1.76,6.09,15.96,12.2,31.93,18.3,47.89,2.65,6.94,5.27,13.89,7.66,20.93.11.31.16.66.54.86.7-.62.62-1.56.9-2.33,3.11-8.71,6.13-17.45,9.27-26.15,3.55-9.85,7.19-19.66,10.79-29.48,1.47-4,2.97-7.98,4.4-11.98.36-1,.79-1.53,2-1.53,10.9.05,21.8.03,32.71.04.26,0,.53.06.94.11-.54,2.24-1.63,4.18-2.5,6.18-6.32,14.71-12.7,29.39-19.06,44.09-7.59,17.54-15.21,35.07-22.75,52.64-2.84,6.62-6.23,12.89-10.78,18.5-7.54,9.3-17.37,14.59-29,16.81-7.42,1.42-14.9,1.54-22.42,1.23-3.11-.13-6.19-.51-9.28-.86-1.9-.21-1.92-.26-1.92-2.07,0-7.31-.01-14.63,0-21.94,0-1.69.03-1.67,1.73-1.4,6.58,1.03,13.17,1.42,19.76.22,4.53-.83,8.69-2.54,12.17-5.63,2.3-2.04,4.09-4.45,4.97-7.48.31-1.07.2-1.94-.27-2.89-1.57-3.22-3.1-6.46-4.64-9.7-5.44-11.41-10.87-22.83-16.31-34.23-3.2-6.71-6.44-13.4-9.65-20.11-5.07-10.61-10.13-21.23-15.19-31.84-.2-.42-.33-.87-.53-1.4Z"/>
        <path id="path14" class="cls-2" d="M869.15,64.53c-5.39,5.54-10.61,10.91-15.9,16.35-2.41-1.91-4.7-3.79-7.22-5.36-6.06-3.78-12.68-5.98-19.68-7.14-6.57-1.09-13.19-1.15-19.82-.75-2.9.18-5.78.63-8.46,1.88-2.1.98-3.75,2.35-4.28,4.79-.52,2.4.28,4.81,2.24,6.29,1.21.91,2.57,1.48,4,1.9,2.87.83,5.83,1.13,8.79,1.43,8.59.89,17.19,1.76,25.78,2.64,6.47.66,12.84,1.81,18.83,4.47,9.2,4.09,14.67,10.94,15.77,21.13.6,5.52.31,10.92-1.69,16.14-2.5,6.54-7.11,11.26-13.07,14.71-6.23,3.61-13.07,5.43-20.12,6.54-6.83,1.07-13.71,1.43-20.61,1.19-12.09-.41-23.94-2.15-35.14-7.05-7.99-3.49-14.97-8.35-20.68-14.97-.44-.5-.82-1.05-1.29-1.66,2.67-2.29,5.27-4.54,7.88-6.76,3.09-2.63,6.19-5.23,9.29-7.84,1.09-.92,1.13-.93,2.06.09,7.45,8.18,16.82,12.7,27.58,14.68,5.54,1.02,11.12,1.49,16.73,1.4,3.84-.06,7.7-.3,11.43-1.42,2.72-.82,5.3-1.92,6.54-4.68,1.33-2.95,1.07-7.75-3.34-9.58-2.53-1.05-5.15-1.65-7.84-1.94-5.77-.62-11.56-1.09-17.33-1.72-6.97-.77-14.01-1.07-20.86-2.8-5.74-1.45-11.24-3.43-16.03-7.05-4.83-3.65-8-8.35-9.31-14.28-1.29-5.79-1.24-11.53.74-17.17,2.44-6.95,7.4-11.67,13.72-15.09,6.32-3.43,13.17-5.19,20.24-6.19,4.15-.59,8.32-.8,12.51-.99,9.85-.44,19.57.41,29.13,2.71,9.64,2.32,18.57,6.21,26.13,12.82.71.62,1.37,1.3,2.05,1.97.38.38.73.79,1.21,1.31h0Z"/>
        <path id="path16" class="cls-2" d="M974.62,80.8c-7.28-6.6-15.79-10.39-25.31-12.17-7.04-1.31-14.11-1.4-21.21-1-2.83.16-5.63.67-8.27,1.84-1,.44-1.9.99-2.68,1.77-2.87,2.89-2.44,7.4.95,9.66,1.61,1.07,3.43,1.59,5.28,2,4.37.97,8.84,1.11,13.26,1.62,8.58,1,17.22,1.48,25.75,2.86,5.02.81,9.88,2.2,14.45,4.5,7.42,3.74,12.09,9.6,13.64,17.81.93,4.96.94,9.93-.19,14.88-1.64,7.14-5.71,12.62-11.63,16.76-5.46,3.83-11.62,6-18.09,7.36-4.83,1.02-9.72,1.55-14.65,1.85-3.45.21-6.9.29-10.34.18-12.38-.4-24.49-2.18-35.92-7.28-7.7-3.43-14.44-8.19-20.02-14.54-.18-.2-.32-.44-.49-.65-.92-1.19-.94-1.21.23-2.2,5.35-4.55,10.71-9.09,16.08-13.62,1.09-.92,1.15-.93,2.08.12,7.84,8.82,17.97,13.15,29.35,15.01,4.94.81,9.94,1.24,14.94,1.06,4.58-.17,9.19-.35,13.52-2.19,2.75-1.17,4.64-3.03,5.06-6.07.34-2.45-.58-5.66-3.3-7.06-2.76-1.43-5.76-1.97-8.77-2.3-7.11-.78-14.24-1.41-21.36-2.11-7.53-.73-15.06-1.5-22.25-4.06-4.68-1.67-9.05-3.87-12.7-7.36-3.74-3.58-6.11-7.86-7.15-12.91-1.05-5.11-1.01-10.19.45-15.22,1.97-6.79,6.4-11.64,12.25-15.33,5.27-3.33,11.11-5.22,17.16-6.45,5.7-1.16,11.48-1.64,17.3-1.86,7.73-.3,15.39.16,23,1.43,10.66,1.78,20.69,5.22,29.49,11.7,1.85,1.36,3.59,2.86,5.22,4.49,1.06,1.06,1.04,1.15.06,2.31-.04.05-.09.1-.14.15-4.85,4.91-9.71,9.82-14.57,14.72-.09.09-.23.14-.48.28h0Z"/>
      </g>
    </g>
  </g>
</svg>